<svg width="828" height="798" viewBox="0 0 828 798" fill="none" xmlns="http://www.w3.org/2000/svg">
<path d="M152.9 360.7C118 325.8 61.3 325.8 26.4 360.7C-8.49999 395.6 -8.49999 452.3 26.4 487.2C59 519.8 110.4 522 145.5 493.8L261.8 610.1C259.7 617.2 261.4 625.2 267 630.9L367.8 731.7C375.9 739.8 389.2 739.8 397.3 731.7C405.4 723.6 405.4 710.3 397.3 702.2L296.5 601.4C290.9 595.8 282.9 594 275.7 596.2L159.5 479.9C187.7 444.7 185.5 393.3 152.9 360.7ZM128.4 434.9C124.8 434.5 122.2 431.3 122.6 427.7C123 424.1 126.2 421.5 129.8 421.9C133.4 422.3 136 425.5 135.6 429.1C135.4 430.6 134.7 432 133.7 433C132.4 434.4 130.4 435.1 128.4 434.9ZM162.6 443.5C162.3 444.6 161.7 445.6 160.9 446.4C159.3 448 156.9 448.7 154.6 448.1C151.1 447.2 149.1 443.6 150 440.1C150.9 436.6 154.5 434.6 158 435.5C161.5 436.5 163.6 440 162.6 443.5ZM162.6 404.4C163.2 406.7 162.5 409.1 160.9 410.7C160.1 411.5 159.1 412.1 158 412.4C154.5 413.3 150.9 411.3 150 407.8C149.1 404.3 151.1 400.7 154.6 399.8C158.1 398.9 161.7 400.9 162.6 404.4ZM142.9 370.4C143 370.5 143 370.5 142.9 370.4C143 370.5 143 370.5 143 370.5C145.5 373 145.6 377.2 143 379.7C140.5 382.2 136.3 382.2 133.8 379.7L133.7 379.6C131.1 377.1 131.1 372.9 133.7 370.4C136.3 367.9 140.4 367.9 142.9 370.4ZM101.1 355.6C102 352.1 105.6 350 109.1 351C112.6 351.9 114.7 355.5 113.7 359C113.4 360.2 112.8 361.2 112 361.9C110.4 363.5 108 364.2 105.7 363.6C102.2 362.6 100.2 359.1 101.1 355.6ZM122.2 391.2C122.3 391.3 122.3 391.3 122.3 391.3C124.8 393.8 124.9 398 122.3 400.5C119.8 403 115.6 403 113.1 400.5C113.1 400.5 113.1 400.5 113 400.4C110.4 397.9 110.4 393.7 113 391.2C115.5 388.6 119.6 388.6 122.2 391.2ZM65.4 359C64.5 355.5 66.5 352 70 351C73.5 350.1 77.1 352.1 78 355.6C78.6 357.9 77.9 360.3 76.3 361.9C75.5 362.7 74.5 363.3 73.4 363.6C69.9 364.6 66.3 362.5 65.4 359ZM78.6 385.3C78.2 381.7 80.8 378.5 84.3 378.1C87.9 377.7 91.1 380.3 91.5 383.8C91.7 385.9 91 387.8 89.6 389.2C88.6 390.2 87.3 390.9 85.7 391.1C82.2 391.4 79 388.9 78.6 385.3ZM36.1 370.7C38.7 368.1 42.8 368.1 45.3 370.7C47.8 373.2 47.9 377.4 45.3 379.9C42.8 382.5 38.6 382.5 36.1 379.9C33.6 377.3 33.6 373.2 36.1 370.7ZM16.6 404.5C17.5 401 21.1 398.9 24.6 399.9C28.1 400.8 30.1 404.4 29.2 407.9C28.9 409 28.3 410.1 27.5 410.8C25.9 412.4 23.5 413.1 21.2 412.5C17.8 411.6 15.7 408 16.6 404.5ZM16.7 443.6C15.8 440.1 17.8 436.5 21.3 435.6C24.8 434.7 28.4 436.7 29.3 440.2C29.9 442.5 29.2 444.9 27.6 446.5C26.8 447.3 25.8 447.9 24.7 448.2C21.2 449.2 17.6 447.1 16.7 443.6ZM36.3 477.5C33.8 475 33.7 470.8 36.3 468.3C38.8 465.8 43 465.7 45.5 468.3C48 470.8 48.1 475 45.5 477.5C43 480 38.8 480 36.3 477.5ZM78.1 492.4C77.8 493.5 77.2 494.5 76.4 495.3C74.8 496.9 72.4 497.6 70.1 497C66.6 496.1 64.6 492.5 65.5 489C66.4 485.5 70 483.4 73.5 484.4C77 485.3 79.1 488.9 78.1 492.4ZM46 439.4C44.8 436 46.6 432.3 50 431.1C53.4 429.9 57.1 431.7 58.3 435.1C59.2 437.5 58.5 440.2 56.8 441.9C56.1 442.6 55.3 443.1 54.4 443.4C50.9 444.5 47.2 442.8 46 439.4ZM70.4 459.4C71.6 456 75.3 454.2 78.7 455.4C82.1 456.6 83.9 460.3 82.7 463.7C82.4 464.7 81.8 465.5 81.2 466.2C79.5 467.9 76.9 468.6 74.4 467.8C71.1 466.5 69.3 462.8 70.4 459.4ZM113.9 489C114.5 491.3 113.8 493.7 112.2 495.3C111.4 496.1 110.4 496.7 109.3 497C105.8 497.9 102.2 495.9 101.3 492.4C100.4 488.9 102.4 485.3 105.9 484.4C109.4 483.4 112.9 485.5 113.9 489ZM50.4 399.5C52.3 396.4 56.3 395.5 59.4 397.4C62.5 399.3 63.4 403.3 61.5 406.4C61.2 406.8 60.9 407.2 60.6 407.6C58.5 409.7 55.2 410.2 52.5 408.5C49.4 406.6 48.5 402.5 50.4 399.5ZM114.3 463.1C111.3 465 107.2 464.1 105.3 461.1C103.4 458.1 104.3 454 107.3 452.1C110.3 450.2 114.4 451.1 116.3 454.1C118 456.7 117.5 460.1 115.4 462.2C115.1 462.5 114.7 462.9 114.3 463.1ZM143.1 477.4C140.6 479.9 136.4 479.9 133.9 477.4C131.4 474.9 131.3 470.7 133.9 468.2C136.4 465.6 140.6 465.6 143.1 468.2C145.6 470.7 145.6 474.8 143.1 477.4Z" fill="white"/>
<path d="M824.3 402.5L775.4 349.3C770.4 343.8 761.9 343.5 756.4 348.5L685.5 413.7C671.7 426.4 670.8 447.9 683.5 461.7L687.4 465.9L540.7 600.7C533.7 598.3 525.6 599.7 519.7 605.1L414.8 701.6C406.3 709.4 405.8 722.6 413.6 731.1C421.4 739.6 434.6 740.1 443.1 732.3L548 635.8C553.8 630.4 555.9 622.5 554.1 615.3L700.7 480.5L704.6 484.7C717.3 498.5 738.8 499.4 752.6 486.7L823.5 421.5C828.9 416.5 829.3 408 824.3 402.5ZM699.6 441.3C696.9 443.7 692.8 443.6 690.4 440.9C688 438.2 688.1 434.1 690.8 431.7L758.2 369.8C760.9 367.4 765 367.5 767.4 370.2C769.8 372.9 769.7 377 767 379.4L699.6 441.3ZM717.3 460.6C714.6 463 710.5 462.9 708.1 460.2C705.7 457.5 705.8 453.4 708.5 451L775.9 389.1C778.6 386.7 782.7 386.8 785.1 389.5C787.5 392.2 787.4 396.3 784.7 398.7L717.3 460.6ZM735.1 479.9C732.4 482.3 728.3 482.2 725.9 479.5C723.5 476.8 723.6 472.7 726.3 470.3L793.7 408.4C796.4 406 800.5 406.1 802.9 408.8C805.3 411.5 805.2 415.6 802.5 418L735.1 479.9Z" fill="white"/>
<path d="M554.8 409.3V375.7C516 361.4 464.9 353.6 410.5 353.6C356.5 353.6 305.7 361.3 266.9 375.4L267.1 410.3C280.1 405.1 306.1 396.2 343 390.7C390.4 383.6 465.1 381.3 554.8 409.3Z" fill="white"/>
<path d="M410.5 340.5C464.3 340.5 515.2 348 554.8 361.8V244.9C553.6 244.9 552.5 245 551.3 245C526.8 245 503.4 236.8 484.4 221.7C463.2 236.6 437.5 245 410.4 245C383.8 245 358 236.8 336.4 221.6C318 236.2 294.8 245 269.6 245C268.5 245 267.3 245 266.2 244.9L266.8 361.6C306.4 347.9 357 340.5 410.5 340.5Z" fill="white"/>
<path d="M551.4 43.2C540.8 43.2 530.2 45 520.3 48.5C527.1 59.5 532.1 71.3 535.4 83.8C536.3 87.3 534.2 90.8 530.7 91.7C530.2 91.8 529.6 91.9 529.1 91.9C526.2 91.9 523.6 89.9 522.8 87C519.3 73.4 513.3 60.6 505.2 49.1C483.5 18.5 448.1 0.199997 410.7 0.199997C371.9 0.199997 335.9 19.5 314.3 51.7C313.7 52.6 306 65.8 303.1 85.1C302.6 88.7 299.3 91.1 295.7 90.6C292.1 90.1 289.7 86.8 290.2 83.2C292.6 66.8 298.1 54.4 301.2 48.5C291.2 45 280.6 43.1 269.8 43.1C217.8 43.1 175.4 85.4 175.4 137.5C175.4 186.1 212.4 226.3 259.7 231.3C259.7 231.3 259.7 231.3 259.8 231.3C260.3 231.3 260.7 231.4 261.2 231.4C264 231.7 266.9 231.8 269.8 231.8C321.8 231.8 364.2 189.5 364.2 137.4C364.2 133.8 367.1 130.9 370.7 130.9C374.3 130.9 377.2 133.8 377.2 137.4C377.2 166.6 365.5 193 346.6 212.4C365.5 224.9 387.7 231.7 410.7 231.7C456.8 231.7 498.6 204.4 517 162C518.4 158.7 522.3 157.2 525.6 158.6C528.9 160 530.4 163.9 529 167.2C521.2 185.2 509.6 200.7 495.4 213.1C511.6 225.2 531.2 231.7 551.7 231.7C554.6 231.7 557.5 231.6 560.3 231.3C560.7 231.2 561.2 231.2 561.7 231.2H561.8C609.1 226.2 646.1 186 646.1 137.4C645.7 85.5 603.4 43.2 551.4 43.2ZM552.9 219.4C549 219.4 545.9 216.3 545.9 212.4C545.9 208.5 549 205.4 552.9 205.4C589.5 205.4 619.3 175.6 619.3 139C619.3 135.1 622.4 132 626.3 132C630.2 132 633.3 135.1 633.3 139C633.3 183.3 597.2 219.4 552.9 219.4Z" fill="white"/>
<path d="M549.1 524.2C553.2 510.9 555.4 496.7 555.4 482V423L550.9 421.6C548 420.7 545.2 419.8 542.3 419V481.9C542.3 498.5 539.2 514.4 533.6 529C541.8 528.2 546.5 526.1 549.1 524.2Z" fill="white"/>
<path d="M287.4 529.2C281.8 514.6 278.7 498.7 278.7 482.1V419.9C276.1 420.8 273.9 421.7 272 422.4L265.6 425V482.1C265.6 496.8 267.8 510.9 271.9 524.3C274.6 526.1 279.3 528.2 287.4 529.2Z" fill="white"/>
<path d="M513 579.6C508.7 579.6 504.3 579.4 499.7 579C476.2 600.6 444.9 613.9 410.5 613.9C376.1 613.9 344.8 600.7 321.3 579C316.7 579.4 312.3 579.6 308.1 579.6C306.5 579.6 305 579.6 303.5 579.5C330 608.6 368.2 626.9 410.6 626.9C453 626.9 491.2 608.6 517.7 579.5C516.1 579.6 514.6 579.6 513 579.6Z" fill="white"/>
<path d="M624 216.6C616.8 223.2 608.8 228.8 600.3 233.2C647.7 270.6 683.5 322.1 701.6 381.2L724.1 360.5C704.3 303.8 669.3 254.2 624 216.6Z" fill="white"/>
<path d="M729.5 508.7C723.6 508.7 717.9 507.6 712.5 505.5C694.6 654.5 567.8 770 414 770C266.1 770 143.1 663.2 117.9 522.5C109 525.1 99.7 526.4 90.4 526.5C117.5 680.6 252.1 797.8 414 797.8C582.5 797.8 721.4 670.9 740.4 507.5C736.8 508.3 733.2 508.7 729.5 508.7Z" fill="white"/>
<path d="M225.1 235.2C216.2 231.1 207.9 225.9 200.4 219.5C166.3 248.7 138.3 284.8 118.4 325.5C127.4 328.1 135.9 331.9 143.8 336.9C163.3 297.4 191.1 262.7 225.1 235.2Z" fill="white"/>
<path d="M576.9 517.5C569.5 499.9 555.3 505.3 555.3 505.3C555.3 505.3 564.8 508 566.1 514.8C567.5 521.6 564.7 539.8 531.6 542.5C498.5 545.2 468.7 487 443 482.3C417.3 477.6 410.5 493.1 410.5 493.1C410.5 493.1 403.7 477.5 378 482.3C352.3 487 322.5 545.2 289.4 542.5C256.3 539.8 253.6 521.5 254.9 514.8C256.3 508 265.7 505.3 265.7 505.3C265.7 505.3 251.5 499.9 244.1 517.5C236.7 535.1 253.6 559.4 292.8 565.5C332 571.6 405.7 551.3 410.5 515.5C415.2 551.3 488.9 571.6 528.2 565.5C567.4 559.4 584.3 535.1 576.9 517.5Z" fill="white"/>
</svg>
